<mxfile host="app.diagrams.net" modified="2024-03-11T07:11:26.114Z" agent="Mozilla/5.0 (Windows NT 10.0; Win64; x64) AppleWebKit/537.36 (KHTML, like Gecko) Chrome/122.0.0.0 Safari/537.36" etag="6m_oe2eeVx8CtrKzC0TH" version="24.0.4" type="github">
  <diagram name="第 1 页" id="l5UXx-VDfEBrugfZ-KTm">
    <mxGraphModel dx="1434" dy="772" grid="1" gridSize="10" guides="1" tooltips="1" connect="1" arrows="1" fold="1" page="1" pageScale="1" pageWidth="827" pageHeight="1169" math="0" shadow="0">
      <root>
        <mxCell id="0" />
        <mxCell id="1" parent="0" />
        <mxCell id="fjGvIwI44u2lWH7ZDOtB-3" style="edgeStyle=orthogonalEdgeStyle;rounded=0;orthogonalLoop=1;jettySize=auto;html=1;exitX=0.5;exitY=1;exitDx=0;exitDy=0;entryX=0.5;entryY=0;entryDx=0;entryDy=0;" edge="1" parent="1" source="UVQU9Sx3ME2UHtDFGx-m-2" target="fjGvIwI44u2lWH7ZDOtB-1">
          <mxGeometry relative="1" as="geometry" />
        </mxCell>
        <mxCell id="UVQU9Sx3ME2UHtDFGx-m-2" value="测试" style="rounded=0;whiteSpace=wrap;html=1;" parent="1" vertex="1">
          <mxGeometry x="280" y="70" width="120" height="60" as="geometry" />
        </mxCell>
        <mxCell id="fjGvIwI44u2lWH7ZDOtB-1" value="" style="ellipse;whiteSpace=wrap;html=1;" vertex="1" parent="1">
          <mxGeometry x="280" y="200" width="120" height="80" as="geometry" />
        </mxCell>
        <mxCell id="fjGvIwI44u2lWH7ZDOtB-4" value="" style="strokeWidth=2;html=1;shape=mxgraph.flowchart.annotation_1;align=left;pointerEvents=1;" vertex="1" parent="1">
          <mxGeometry x="230" y="240" width="50" height="100" as="geometry" />
        </mxCell>
        <mxCell id="fjGvIwI44u2lWH7ZDOtB-6" value="" style="shape=dataStorage;whiteSpace=wrap;html=1;fixedSize=1;" vertex="1" parent="1">
          <mxGeometry x="280" y="300" width="100" height="80" as="geometry" />
        </mxCell>
        <mxCell id="fjGvIwI44u2lWH7ZDOtB-7" value="" style="strokeWidth=2;html=1;shape=mxgraph.flowchart.multi-document;whiteSpace=wrap;" vertex="1" parent="1">
          <mxGeometry x="470" y="70" width="88" height="60" as="geometry" />
        </mxCell>
      </root>
    </mxGraphModel>
  </diagram>
</mxfile>
